<?xml version="1.0" standalone="no"?><!DOCTYPE svg PUBLIC "-//W3C//DTD SVG 1.1//EN" "http://www.w3.org/Graphics/SVG/1.1/DTD/svg11.dtd"><svg t="1742801843888" class="icon" viewBox="0 0 1024 1024" version="1.1" xmlns="http://www.w3.org/2000/svg" p-id="17339" xmlns:xlink="http://www.w3.org/1999/xlink" width="200" height="200"><path d="M832 557.536a48 48 0 0 0-48 48v269.136A37.328 37.328 0 0 1 746.672 912H149.328A37.328 37.328 0 0 1 112 874.672V277.328A37.328 37.328 0 0 1 149.328 240h269.136a48 48 0 0 0 0-96H149.328A133.328 133.328 0 0 0 16 277.328v597.344A133.328 133.328 0 0 0 149.328 1008h597.344A133.328 133.328 0 0 0 880 874.672V605.536a48 48 0 0 0-48-48z" fill="#3c5cce" p-id="17340"></path><path d="M905.776 133.744a48 48 0 0 0-67.888 0L421.12 550.528a48 48 0 1 0 67.888 67.888L905.776 201.6a48 48 0 0 0 0-67.856z" fill="#3c5cce" p-id="17341"></path></svg>