<?xml version="1.0" standalone="no"?><!DOCTYPE svg PUBLIC "-//W3C//DTD SVG 1.1//EN" "http://www.w3.org/Graphics/SVG/1.1/DTD/svg11.dtd"><svg t="1743166303591" class="icon" viewBox="0 0 1024 1024" version="1.1" xmlns="http://www.w3.org/2000/svg" p-id="5629" xmlns:xlink="http://www.w3.org/1999/xlink" width="200" height="200"><path d="M560.910222 379.434667c-13.112889-16.711111-31.502222-26.382222-50.446222-26.382223-18.232889 0-35.057778 8.490667-47.544889 24.433778L355.285333 521.386667c-13.866667 17.692444-17.450667 37.333333-9.585777 53.504 7.424 15.274667 23.523556 22.968889 44.145777 22.968889h67.882667a14.222222 14.222222 0 1 0 0-28.444445h-67.882667c-9.329778 0-16.085333-1.891556-18.588444-6.997333-2.929778-6.058667-0.483556-14.222222 6.599111-23.253334l107.662222-144.256c14.264889-18.190222 38.300444-16.896 52.892445 1.749334l107.960889 141.255111c6.983111 8.917333 9.400889 17.891556 6.286222 24.277333-3.527111 7.224889-13.084444 7.224889-18.474667 7.224889h-48.469333c-7.836444 0-9.059556 8.533333-9.059556 16.384v51.114667c0 30.364444-27.192889 57.002667-55.409778 57.002666-23.68 0-44.529778-11.107556-51.811555-29.724444a13.809778 13.809778 0 0 0-18.104889-8.049778c-7.324444 2.858667-10.282667 11.107556-7.438222 18.417778 11.534222 29.468444 41.898667 47.800889 77.184 47.800889 44.145778 0 84.024889-39.139556 84.024889-85.447111v-39.054222h29.084444c20.48 0 36.536889-7.808 44.060445-23.253334 8.035556-16.526222 4.48-35.925333-9.386667-53.603555l-107.946667-141.568z" p-id="5630" fill="#3c5cce"></path><path d="M460.856889 628.750222a13.824 13.824 0 0 0 0-20.053333c-5.262222-5.248-14.791111-5.248-20.039111 0a13.809778 13.809778 0 0 0-4.124445 10.083555c0 3.726222 1.422222 7.409778 4.124445 10.112 2.688 2.56 6.243556 4.110222 10.097778 4.110223 3.683556 0 7.239111-1.564444 9.941333-4.252445z" p-id="5631" fill="#3c5cce"></path><path d="M512 50.033778C257.28 50.033778 50.033778 257.265778 50.033778 512 50.033778 766.72 257.28 973.966222 512 973.966222S973.966222 766.72 973.966222 512C973.966222 257.265778 766.72 50.033778 512 50.033778z m0 867.043555C288.64 917.077333 106.922667 735.36 106.922667 512S288.64 106.922667 512 106.922667 917.077333 288.64 917.077333 512 735.36 917.077333 512 917.077333z" p-id="5632" fill="#3c5cce"></path><path d="M606.520889 166.954667a14.250667 14.250667 0 0 0-17.479111 9.969777c-2.062222 7.594667 2.417778 15.402667 9.969778 17.479112C741.632 233.386667 841.216 363.989333 841.216 512a14.222222 14.222222 0 0 0 28.444444 0c0-160.796444-108.188444-302.677333-263.139555-345.045333zM512.014222 182.769778a342.485333 342.485333 0 0 1 19.185778 0.526222 14.222222 14.222222 0 0 0 0.753778-28.416 370.631111 370.631111 0 0 0-19.925334-0.554667 14.222222 14.222222 0 0 0-0.014222 28.444445z" p-id="5633" fill="#3c5cce"></path></svg>